<svg xmlns="http://www.w3.org/2000/svg" viewBox="0 0 512 512">
  <rect width="512" height="512" rx="90" fill="#fff"/>
  <path d="M407.5 178.6c-3.5-13.2-13.8-23.5-27-27C356.2 145 256 145 256 145s-100.2 0-124.5 6.6c-13.2 3.5-23.5 13.8-27 27C98 203.2 98 256 98 256s0 52.8 6.5 77.4c3.5 13.2 13.8 23.2 27 26.7C155.8 367 256 367 256 367s100.2 0 124.5-6.9c13.2-3.5 23.5-13.5 27-26.7 6.5-24.6 6.5-77.4 6.5-77.4s0-52.8-6.5-77.4z" fill="#FF0000"/>
  <polygon points="218,316 326,256 218,196" fill="#fff"/>
</svg>
